<?xml version="1.0" encoding="utf-8"?>
<!-- Generator: Adobe Illustrator 25.2.0, SVG Export Plug-In . SVG Version: 6.00 Build 0)  -->
<svg version="1.1" id="Layer_1" xmlns="http://www.w3.org/2000/svg" xmlns:xlink="http://www.w3.org/1999/xlink" x="0px" y="0px"
	 viewBox="0 0 841.89 841.89" style="enable-background:new 0 0 841.89 841.89;" xml:space="preserve">
<style type="text/css">
	.st0{fill:url(#SVGID_1_);}
	.st1{fill:url(#SVGID_2_);}
	.st2{fill:url(#SVGID_3_);}
	.st3{fill:none;stroke:#231F20;stroke-width:5;stroke-miterlimit:10;}
	.st4{fill:#231F20;}
	.st5{fill:url(#SVGID_4_);}
</style>
<g>
	<g>
		<linearGradient id="SVGID_1_" gradientUnits="userSpaceOnUse" x1="47.3415" y1="404.1808" x2="817.9745" y2="438.7605">
			<stop  offset="0" style="stop-color:#84D4FF"/>
			<stop  offset="1" style="stop-color:#E981FC"/>
		</linearGradient>
		<path class="st0" d="M420.94,833.06c-24.1,0-48.19-6.2-69.7-18.62L115.02,678.06c-42.99-24.82-69.71-71.08-69.71-120.72V284.56
			c0-49.64,26.72-95.9,69.71-120.72L351.24,27.45c42.99-24.83,96.39-24.84,139.4,0l236.22,136.39
			c42.99,24.82,69.71,71.08,69.71,120.72v272.77c0,49.64-26.72,95.9-69.71,120.72L490.65,814.45
			C469.15,826.86,445.05,833.06,420.94,833.06z M420.95,73.3c-12.96,0-25.91,3.33-37.46,10L147.27,219.69
			c-23.1,13.34-37.46,38.2-37.46,64.87v272.77c0,26.67,14.36,51.53,37.46,64.87l236.22,136.39c23.11,13.35,51.82,13.33,74.91,0
			l236.22-136.39c23.1-13.34,37.46-38.2,37.46-64.87V284.56c0-26.67-14.36-51.53-37.46-64.87L458.4,83.3
			C446.85,76.63,433.9,73.3,420.95,73.3z"/>
	</g>
	<g>
		<g>
			<g>
				<linearGradient id="SVGID_2_" gradientUnits="userSpaceOnUse" x1="43.078" y1="499.1958" x2="813.711" y2="533.7755">
					<stop  offset="0" style="stop-color:#84D4FF"/>
					<stop  offset="1" style="stop-color:#E981FC"/>
				</linearGradient>
				<path class="st1" d="M586.02,552.72H448.39c-17.81,0-32.25-14.44-32.25-32.25v0c0-17.81,14.44-32.25,32.25-32.25h137.63
					c17.81,0,32.25,14.44,32.25,32.25v0C618.27,538.28,603.83,552.72,586.02,552.72z"/>
			</g>
		</g>
		<g>
			<linearGradient id="SVGID_3_" gradientUnits="userSpaceOnUse" x1="47.0097" y1="411.5766" x2="817.6426" y2="446.1563">
				<stop  offset="0" style="stop-color:#84D4FF"/>
				<stop  offset="1" style="stop-color:#E981FC"/>
			</linearGradient>
			<path class="st2" d="M366.45,377.56l-89.07-80.12c-13.22-11.89-33.57-10.82-45.46,2.39l0,0c-11.9,13.22-10.83,33.58,2.39,45.48
				l84.02,75.59l-84.05,75.62c-13.21,11.88-14.29,32.22-2.42,45.44l0.06,0.07c11.89,13.24,32.26,14.33,45.49,2.43l89.03-80.09
				l21.62-19.43c14.22-12.78,14.24-35.07,0.04-47.87L366.45,377.56z"/>
		</g>
	</g>
</g>
</svg>
