<?xml version="1.0" encoding="utf-8"?>
<!-- Generator: Adobe Illustrator 25.2.0, SVG Export Plug-In . SVG Version: 6.00 Build 0)  -->
<svg version="1.1" id="Layer_1" xmlns="http://www.w3.org/2000/svg" xmlns:xlink="http://www.w3.org/1999/xlink" x="0px" y="0px"
	 viewBox="0 0 500 500" style="enable-background:new 0 0 500 500;" xml:space="preserve">
<style type="text/css">
	.st0{fill:#EBEBEB;}
	.st1{fill:#37474F;}
	.st2{fill:#263238;}
	.st3{fill:#F7A9A0;}
	.st4{fill:#90CAF9;}
	.st5{fill:#FFFFFF;}
	.st6{opacity:0.1;enable-background:new    ;}
	.st7{fill:#35474C;}
	.st8{fill:#455A64;}
</style>
<g id="freepik--background-complete--inject-7">
	<rect x="415.6" y="397.4" class="st0" width="41" height="13"/>
	<rect x="104.3" y="228.1" class="st0" width="41" height="13"/>
	<path class="st0" d="M438.4,426.9c6.8-0.1,24.3-0.4,30.8-0.5h10.2l-0.5,0.5v-13l0.6,0.6c-6.8,0-24.2-0.1-30.7-0.2l-10.2-0.1
		l0.3-0.3L438.4,426.9L438.4,426.9z M438.4,426.9l-0.3-13v-0.3h0.3c5.1-0.1,15.4-0.2,20.5-0.2l20.5-0.1h0.6v0.6v13v0.5h-0.5h-10.3
		C462.6,427.3,445.3,427,438.4,426.9L438.4,426.9z"/>
	<path class="st0" d="M296.2,133.7c6.8-0.1,24.3-0.4,30.8-0.5h10.2l-0.5,0.5v-13l0.6,0.6c-6.8,0-24.2-0.1-30.7-0.2l-10.2-0.1
		l0.3-0.3L296.2,133.7L296.2,133.7z M296.2,133.7l-0.3-13v-0.3h0.3c5.1-0.1,15.4-0.2,20.5-0.2l20.5-0.1h0.6v0.6l-0.1,13v0.5h-0.5
		h-10.3C320.3,134.2,302.9,133.9,296.2,133.7L296.2,133.7z"/>
	<path class="st0" d="M319,150.2c6.8-0.1,24.3-0.4,30.8-0.5H360l-0.5,0.5l-0.1-13l0.6,0.6c-6.8,0-24.2-0.1-30.7-0.2l-10.2-0.1
		l0.3-0.3L319,150.2L319,150.2z M319,150.2l-0.3-13v-0.3h0.3c5.1-0.1,15.4-0.2,20.5-0.2l20.5-0.1h0.6v0.6v13v0.5h-0.5h-10.3
		C343.2,150.6,325.9,150.3,319,150.2L319,150.2z"/>
	<rect x="341.8" y="120.7" class="st0" width="41" height="13"/>
	<rect x="20.6" y="413.8" class="st0" width="41" height="13"/>
	<rect x="43.4" y="11.1" class="st0" width="41" height="13"/>
	<path class="st0" d="M20.6,40.6c6.8-0.1,24.3-0.4,30.8-0.5h10.2L61,40.6v-13l0.6,0.6c-6.8,0-24.2-0.1-30.7-0.2l-10.2-0.1l0.2-0.4
		L20.6,40.6L20.6,40.6z M20.6,40.6l-0.3-13.1v-0.3h0.3C25.7,27.1,36,27,41.1,27l20.5-0.1h0.6v0.6v13V41h-0.5H51.3
		C44.8,41,27.4,40.7,20.6,40.6L20.6,40.6z"/>
	<path class="st0" d="M415.6,24.1c6.8-0.1,24.3-0.4,30.8-0.5h10.2l-0.5,0.5v-13l0.6,0.6c-6.8,0-24.2-0.1-30.7-0.2l-10.2-0.1l0.3-0.3
		L415.6,24.1L415.6,24.1z M415.6,24.1l-0.3-13v-0.3h0.3c5.1-0.1,15.4-0.2,20.5-0.2l20.5-0.1h0.6v0.6l-0.1,13v0.5h-0.5h-10.3
		C439.7,24.6,422.3,24.3,415.6,24.1L415.6,24.1z"/>
	<path class="st0" d="M410.7,165.3l-3.7,19.4c-1.3,7.9-8.8,13.3-16.7,12c-0.2,0-0.5-0.1-0.7-0.1c-8.1-1.6-13.4-9.4-11.8-17.5
		c0,0,0,0,0,0l6-31c0.1-0.3,0.4-0.2,0.4-0.5c-0.2-0.3-0.2-0.3-0.2-0.7c1.8-7.9,9.4-13.1,17.4-11.8c18.8,3.6,36.8-8.3,40.4-26.8
		c3.6-18.8-8.8-36.3-27.5-39.9c-11.8-2.3-23.9,1.8-31.8,10.9c-5.4,6.3-14.8,7-21.1,1.6c-0.1-0.1-0.1-0.1-0.2-0.2
		c-6.1-5.4-6.7-14.7-1.3-20.9c0,0,0.1-0.1,0.1-0.1c23.1-26.6,63.4-29.4,90-6.3c26.6,23.1,29.4,63.4,6.3,90
		C444.7,156.6,428.2,164.5,410.7,165.3L410.7,165.3z M398.1,230.5l-1,5.4c-1.3,7.9-8.8,13.2-16.7,11.9c-0.2,0-0.5-0.1-0.7-0.1
		c-8.1-1.6-13.3-9.4-11.8-17.4l1-5.4c1.7-8,9.4-13.2,17.4-11.8c8,1.5,13.3,9.1,11.8,17.1C398.1,230.3,398,230.4,398.1,230.5
		L398.1,230.5z"/>
	<path class="st0" d="M63.2,232.9l-4.7-19.2C56.4,206,61,198,68.8,195.9c0.2-0.1,0.4-0.1,0.7-0.2c8-1.9,16,3,17.9,10.9l7.5,30.7
		c0.1,0.3-0.2,0.4-0.2,0.7c0.4,0.2,0.4,0.2,0.4,0.5c1.7,7.9-3.1,15.8-10.9,18c-18.4,4.3-29.9,22.7-25.7,41.1c0,0,0,0.1,0,0.1
		c4.5,18.6,23.1,29.4,41.7,24.8c11.7-2.8,21-11.6,24.4-23.1c2.3-7.9,10.6-12.5,18.5-10.3c0.1,0,0.2,0,0.3,0.1
		c7.8,2.4,12.2,10.6,9.8,18.4c0,0,0,0.1,0,0.1c-10,33.8-45.4,53.1-79.2,43.1c-33.8-10-53.1-45.4-43.1-79.2
		C35.8,254.9,47.5,240.8,63.2,232.9L63.2,232.9z M47.5,168.3l-1.3-5.3c-2.1-7.7,2.5-15.7,10.3-17.8c0.2-0.1,0.5-0.1,0.7-0.2
		c8-1.9,16,3,17.9,10.9l1.3,5.3c1.8,7.9-3.1,15.9-10.9,17.9c-7.9,2-15.9-2.7-17.9-10.6C47.5,168.5,47.5,168.4,47.5,168.3z"/>
</g>
<g id="freepik--Character--inject-7">
	<path class="st1" d="M337.9,496.7h-127c-1-4.1-2.1-8.2-3.1-12.1c-1.2-4.6-2.3-9-3.4-13.3c-0.2-1-0.5-1.9-0.7-2.9
		c-0.8-3.3-1.7-6.6-2.5-9.7c-0.5-1.9-1-3.8-1.4-5.7c-0.5-1.9-1-3.8-1.4-5.6c-0.1-0.5-0.2-1-0.4-1.4c-0.1-0.5-0.3-1-0.4-1.6
		c-0.1-0.5-0.3-1.3-0.5-1.9l0,0c-0.2-0.7-0.3-1.3-0.5-1.9c-0.3-1.2-0.6-2.4-0.9-3.6c-0.5-1.7-0.9-3.4-1.3-5.1
		c-0.2-0.7-0.4-1.4-0.5-2.2c-0.3-1.2-0.6-2.3-0.9-3.4c-0.2-0.7-0.4-1.5-0.5-2.2c-0.8-2.9-1.4-5.7-2.1-8.2c-0.2-0.7-0.3-1.3-0.5-2
		c-0.3-1.2-0.5-2.2-0.8-3.2c-0.2-0.6-0.3-1.3-0.5-1.9c-0.6-2.2-1.1-4.2-1.5-5.9c-0.1-0.5-0.2-0.9-0.3-1.4c-0.3-1.2-0.6-2.2-0.8-3.1
		c-0.1-0.4-0.2-0.7-0.3-1c-0.1-0.3-0.2-0.7-0.3-1s-0.1-0.4-0.2-0.6s-0.2-0.6-0.2-0.9c0-0.1-0.1-0.3-0.1-0.4
		c-0.2-0.8-0.3-1.2-0.3-1.2h123.5c0,0,4.1,14,10.6,36.6c1.3,4.6,2.8,9.6,4.3,14.8C327.4,460.1,332.4,477.7,337.9,496.7z"/>
	<path class="st2" d="M231.7,496.7h-3.2c-4.7-19.4-9.2-38.9-13.7-58.5c-1.1-4.7-2.1-9.5-3.2-14.3c-0.1-0.5-0.2-0.9-0.3-1.3
		c0-0.1,0.1-0.2,0.2-0.2c0.1,0,0.1,0,0.2,0.1c0,0.2,0.1,0.3,0.1,0.4c1.4,5.1,2.9,10.2,4.3,15.3C221.6,457.8,226.7,477.2,231.7,496.7
		z"/>
	<path class="st2" d="M304.2,393.5l-5.5,27.3l-4.5,22.4l-7.6,38.2l-0.8,3.9l-1.3,6.5l-1,4.9h-72.7c-1-4.1-2.1-8.1-3.1-12.1
		c-1.2-4.6-2.3-9-3.4-13.3c-0.2-1-0.5-1.9-0.7-2.9c-0.8-3.3-1.7-6.6-2.5-9.7c-0.5-1.9-1-3.8-1.4-5.7c-0.5-1.9-1-3.8-1.4-5.6
		c-0.1-0.5-0.2-1-0.4-1.4c-0.1-0.5-0.3-1-0.4-1.6c-0.1-0.5-0.3-1.3-0.5-1.9l0,0c-0.2-0.7-0.3-1.3-0.5-1.9c-0.3-1.2-0.6-2.4-0.9-3.6
		c-0.5-1.7-0.9-3.4-1.3-5.1c-0.2-0.7-0.4-1.4-0.5-2.2c-0.3-1.2-0.6-2.3-0.9-3.4c-0.2-0.7-0.4-1.5-0.5-2.2c-0.8-2.9-1.4-5.7-2.1-8.2
		c-0.2-0.7-0.3-1.3-0.5-2c-0.3-1.2-0.5-2.2-0.8-3.2c-0.2-0.6-0.3-1.3-0.5-1.9c-0.6-2.2-1.1-4.2-1.5-5.9c-0.1-0.5-0.2-0.9-0.3-1.4
		c-0.3-1.2-0.6-2.2-0.8-3.1c-0.1-0.4-0.2-0.7-0.3-1c-0.1-0.3-0.2-0.7-0.3-1s-0.1-0.4-0.2-0.6s-0.2-0.6-0.2-0.9
		c0-0.1-0.1-0.3-0.1-0.4c-0.2-0.8-0.3-1.2-0.3-1.2L304.2,393.5z"/>
	<path class="st1" d="M304.2,393.4L304.2,393.4c0,0.7-0.5,8.1-1.7,19.3c-0.3,3.3-0.7,6.9-1.2,10.7c-0.7,6.1-1.6,12.8-2.7,19.9
		c-1.9,12.4-4.4,25.9-7.6,39.2c-1.2,4.8-2.3,9.5-3.7,14.1l-159.5,0.1c0,0-4.7-8.8-4.3-13.4c1.5-18.6,12.4-89.8,12.4-89.8l144.7-0.1
		H304.2z"/>
	<path class="st2" d="M289.6,408.1c-0.2,5.7-0.4,11.4-0.8,17.1c-0.4,6.2-0.9,12.3-1.7,18.5c0,0.2,0,0.5-0.1,0.7
		c-0.8,5.8-1.6,11.5-2.6,17.2c-0.9,5.3-1.6,11.1-4,16c-0.9,1.9-2.2,3.6-3.7,5c-1.4,1.3-3.2,2.2-5.1,2.6c-0.3,0.1-0.6,0.1-0.9,0.2
		h-0.3c0.1,0.1,0.2,0.2,0.2,0.3c-0.1,1.9,0,3.9-0.2,5.8c0,0.1,0,0.2,0,0.2c-0.2,1.7-0.5,3.3-0.8,4.9h-2.7c0,0,0-0.1,0-0.1
		c0.5-1.8,0.9-3.6,1.3-5.4s1.1-3.7,1.5-5.5c0-0.1,0.1-0.1,0.2-0.1c-3.6,0.2-6.8-1.9-8.2-5.2c-0.9-2.4-0.5-5-0.1-7.5
		c0.5-3.3,1-6.5,1.5-9.8c0.9-6,2.1-11.9,3.2-17.9l0.5-2.7c2.1-12.1,4.4-24.3,7.1-36.3c0.1-0.5,0.2-1,0.3-1.5
		c0.1-0.2,0.2-0.2,0.4-0.2c0.1,0,0.2,0.1,0.2,0.3c-0.1,0.8-0.2,1.6-0.3,2.4c-0.5,4.6-1,9.2-1.7,13.8c-0.8,5.4-1.3,10.8-2.1,16.2
		c-0.3,1.8-0.5,3.7-0.8,5.5c-1.2,8.9-2.5,17.7-4,26.6c-0.7,4.1-3.3,11.4,2.6,12.7c1.4,0.3,2.8,0.1,4-0.5c2.6-1.3,4.5-4.3,5.5-6.9
		c1.7-4.7,2.3-9.9,3.1-14.8c1-5.4,1.8-10.9,2.6-16.2l0,0c1-6.8,2-13.5,3-20.3c0.5-3.4,1.1-6.9,1.6-10.3l0.8-4.8
		C289,407.7,289.6,407.8,289.6,408.1z"/>
	<path class="st2" d="M162.7,450.6c6.6-0.1,13.3-1,19.7-2.7c3-0.8,5.9-1.7,8.8-2.7c2.9-0.8,5.6-2.2,7.9-4c4.5-3.9,6.6-9.9,8.5-15.3
		c2.1-6.1,3.9-12.3,5.2-18.6c0.1-0.3,0.5-0.2,0.5,0.1c0.2,7.1-0.7,14.3-2.7,21.1c-1.6,5.8-3.8,12.3-8.5,16.4c-5,4.3-11.7,5.8-18,6.6
		c-7.1,0.8-14.3,0.7-21.4-0.3c-0.2-0.1-0.3-0.3-0.2-0.5C162.6,450.6,162.6,450.6,162.7,450.6z"/>
	<path class="st2" d="M151.7,407.5c-0.4,8.9-9.3,60.8-10.2,78.5c-0.2,3.2,6.2,7.6,6.1,10.8h-3c0.2-3.1-6.2-7.5-6-10.6
		c1.2-17.8,11.7-69.8,12.3-78.7c0-0.2,0.2-0.4,0.4-0.4C151.5,407.1,151.7,407.3,151.7,407.5z"/>
	<path class="st3" d="M277.6,196.3c27.3,20.9,123.2,97.9,125.6,134.4c1.9,29.7-28.2,36.6-47.1,22.6c-25.6-19-74-82.1-93.6-127.9
		C251.7,200.1,250.7,175.8,277.6,196.3z"/>
	<path class="st4" d="M293,290.7l75.6-34.1c0,0-71.8-56.2-97.6-66.8c-29-11.9-28.8,5.5-17.5,33.1C264.7,250.5,293,290.7,293,290.7z"
		/>
	<path class="st4" d="M368.5,256.6L293,290.7c0,0-28.2-40.2-39.5-67.8s-11.5-45,17.5-33.1c1.5,0.6,3.1,1.4,4.8,2.2l2.1,1.2l0,0
		c9.7,5.1,22.6,13.6,35.6,22.7l0.7,0.5c10.3,7.2,20.6,14.8,29.5,21.4l3.7,2.8C359.9,249.8,368.5,256.6,368.5,256.6z"/>
	<path class="st4" d="M368.5,256.6L293,290.7c0,0-28.2-40.2-39.5-67.8s-11.5-45,17.5-33.1c1.5,0.6,3.1,1.4,4.8,2.2l2.1,1.2l0,0
		c9.7,5.1,22.6,13.6,35.6,22.7l0.7,0.5c10.3,7.2,20.6,14.8,29.5,21.4l3.7,2.8C359.9,249.8,368.5,256.6,368.5,256.6z"/>
	<path class="st5" d="M354.3,245.6L354.3,245.6c-0.8-0.2-1.6-0.4-2.5-0.5c2.2,1.9,4.6,3.4,7.2,4.5l1.3,0.5L354.3,245.6z
		 M251.9,186.6L251.9,186.6c-0.9,0.3-1.6,0.7-2.3,1.3c0.5,0.3,1,0.5,1.4,0.7c2.6,1.2,5.3,2.1,8.2,2.5
		C257,189.3,254.6,187.8,251.9,186.6L251.9,186.6z M303.9,261.5c-1-2.7-2.3-5.2-4-7.5c0.5,5.7,2.5,11.2,5.8,15.9
		C305.5,266.9,304.9,264.1,303.9,261.5z M281.8,219.1c-2.7,1-5.2,2.3-7.5,4c2.8-0.2,5.6-0.9,8.3-1.9c2.7-1,5.2-2.3,7.5-4
		C287.3,217.4,284.5,218,281.8,219.1z"/>
	<path class="st2" d="M351.9,248c-2.8,0.8-26.5,11-31.6,13.4s-26.1,11.7-31.2,14.6c-0.1,0-0.2,0.2-0.1,0.3c0,0.1,0.2,0.2,0.3,0.1
		l0,0c5.5-1.8,26.7-11.2,31.9-13.5c5.2-2.3,28.5-13,30.9-14.5C352.3,248.2,352.1,247.9,351.9,248z"/>
	<path class="st6" d="M313.4,281.5l-20.5,9.2c0,0-28.2-40.2-39.5-67.8c-8.3-20.4-10.6-35.2,0.4-36.8L313.4,281.5z"/>
	<path class="st0" d="M311.5,402.1l-177.7,4.7c0,0-8.8-9.1-7.4-19.7c4.9-39.4,67.6-177.6,92-194.2c10.9-7.4,34.3-13.3,47.3-3.5
		c20.2,15.2,40.3,123.4,51.7,184.5C320.7,391.3,311.7,401.9,311.5,402.1z"/>
	<path class="st2" d="M219.5,201.7c6.2,10.2,14.7,18.9,24.3,24.3c4.9,2.8,10.2,4.8,15.5,4.8c2.8,0.2,5.6-0.6,7.9-2.2
		c2.2-1.9,3.8-4.3,4.7-7.1c1.2-3.2,1.9-6.5,2.2-9.9c0.3-3.9,0.4-7.7,0.2-11.6c0-0.2,0.2-0.1,0.2,0c0.2,3.7,0.6,7.3,0.5,11
		c0,3.2-0.4,6.4-1.2,9.5c-0.7,2.9-2.1,5.6-4,7.9c-1.9,2.2-4.6,3.7-7.6,4c-5.6,0.8-11.4-0.8-16.7-3.5c-5.3-2.7-10.1-6.3-14.3-10.5
		c-4.9-4.9-9.1-10.6-12.2-16.8C219.1,201.6,219.3,201.5,219.5,201.7z"/>
	<path class="st4" d="M223.4,186c0,0,7.5,64.3,8.3,94.2s-8.3,199.1-8.3,199.1s-72.7-13.8-81.8-16.2c-9.1-2.4-33.7-26.3-33.7-26.3
		S164.8,231.1,223.4,186z"/>
	<path class="st5" d="M215.9,212c-1.2,2.6-2.1,5.3-2.5,8.2c3.6-4.4,6.1-9.7,7.1-15.4C218.6,206.9,217,209.4,215.9,212z M182.1,317.5
		c-1.2,2.6-2.1,5.3-2.5,8.2c1.9-2.2,3.4-4.6,4.5-7.2c1.2-2.6,2.1-5.3,2.5-8.2C184.8,312.4,183.2,314.9,182.1,317.5L182.1,317.5z
		 M157.7,430.1c-1.2,2.6-2.1,5.3-2.5,8.2c1.9-2.2,3.4-4.6,4.5-7.2c1.2-2.6,2.1-5.3,2.5-8.2C160.4,425.1,158.9,427.5,157.7,430.1
		L157.7,430.1z M222.9,422.4c-1.2,2.6-2.1,5.3-2.5,8.2c1.8-2.2,3.4-4.6,4.5-7.2c0.6-1.3,1.1-2.7,1.6-4.1l0,0c0-1,0.1-2,0.2-3.1
		C225.2,418.1,223.9,420.2,222.9,422.4L222.9,422.4z M158.8,361.5c-2.6-1.2-5.3-2.1-8.2-2.5c4.4,3.6,9.7,6,15.4,7
		C163.8,364.2,161.3,362.7,158.8,361.5L158.8,361.5z M187.6,261.5c-1-2.7-2.3-5.2-4-7.5c0.2,2.8,0.9,5.6,1.9,8.3
		c1,2.7,2.3,5.2,4,7.5C189.3,266.9,188.7,264.1,187.6,261.5L187.6,261.5z M222.6,354.2c-1-2.7-2.3-5.2-4-7.5
		c0.2,2.8,0.9,5.6,1.9,8.3c1,2.7,2.3,5.2,4,7.5C224.3,359.7,223.6,356.9,222.6,354.2L222.6,354.2z M134,455.8
		c0.1,1.1,0.2,2.3,0.5,3.4c0.8,0.6,1.6,1.1,2.4,1.5C136.1,459,135.2,457.3,134,455.8L134,455.8z M123.8,397.2
		c-0.6-1.7-1.4-3.4-2.3-5.1c-0.3,0.8-0.5,1.7-0.8,2.5c0.3,1.2,0.7,2.3,1.1,3.4c1,2.7,2.3,5.2,4,7.5
		C125.5,402.7,124.8,399.9,123.8,397.2L123.8,397.2z M191.2,459.8c-2.7,1-5.2,2.3-7.5,4c2.8-0.2,5.6-0.9,8.3-1.9
		c2.7-1,5.2-2.3,7.5-4C196.6,458.1,193.8,458.7,191.2,459.8L191.2,459.8z M189.2,394.5c-2.7,1-5.2,2.3-7.5,4
		c2.8-0.2,5.6-0.9,8.3-1.9c2.7-1,5.2-2.3,7.6-4C194.6,392.8,191.8,393.5,189.2,394.5L189.2,394.5z M224.5,286.9
		c-2.7,1-5.2,2.3-7.5,4c2.8-0.2,5.6-0.9,8.3-1.9c2.3-0.8,4.5-1.9,6.6-3.3v-0.6C229.3,285.4,226.8,286,224.5,286.9L224.5,286.9z"/>
	<path class="st4" d="M265.7,189.2c8.7,10.8,21.6,73.8,22.5,80.3c0.9,6.4,27.1,202.2,27.1,202.2s16-15.9,17.2-21.1
		c1.2-5.2-15.6-99.5-23.5-134.6c-8.8-39.6-22.5-97.3-31.7-110.9C271,195.4,265.7,189.2,265.7,189.2z"/>
	<path class="st5" d="M283.6,218.5c-0.6,0.2-1.2,0.4-1.7,0.6c-1.5,0.6-3,1.2-4.5,2l0.4,1.5c1.7-0.4,3.3-0.8,4.9-1.4l1.7-0.7
		L283.6,218.5z M305.4,394.5l-0.5,0.2c0.1,0.7,0.2,1.5,0.3,2.2l0.9-0.3c2.7-1,5.2-2.3,7.5-4C310.9,392.9,308.1,393.5,305.4,394.5z
		 M313.4,458.1c0,0.4,0.1,0.8,0.2,1.2c0.7-0.4,1.5-0.9,2.1-1.4C314.9,457.9,314.2,458,313.4,458.1z M298.3,317.5
		c-1.2,2.6-2.1,5.3-2.5,8.2c3.6-4.4,6-9.7,7-15.4C300.9,312.4,299.4,314.9,298.3,317.5L298.3,317.5z"/>
	<path class="st3" d="M183.9,218.6c-49.8,60.1-105.5,145.2-90.7,167.7c16.5,25.1,88.4-32.3,90.4-36.5c2.2-4.7,22.4-59,34.4-113.3
		C231.1,177.1,196.2,203.7,183.9,218.6z"/>
	<path class="st3" d="M97.5,389.1c17.8,12.1,67.1,17.2,151.1,2.4c11.7-2-11.8-83.1-24.3-81.6c-15.8,1.9-76.6,12.8-81,14.2
		C106.6,335.7,85.4,380.9,97.5,389.1z"/>
	<path class="st3" d="M202.7,316.7c0,0,5.1-1.6,30.6-14.4c17.6-8.8,66.3-19.1,107.5,18c15.8,14.2,12.7,31.5-6.3,19.7
		c-13.4-8.4-22-15.3-27.1-16.8c0,0,8.1,22.8,0,34.3c-3.6,5.1-13.7,18.9-23.2,28.5c-2-1.2-3.9-2.5-5.7-3.9
		c-7.3,8.7-18.9,12.4-29.9,9.5L202.7,316.7z"/>
	<path class="st3" d="M251.5,296.6c10,2.6,31.2,8.4,46.8,19.2c17.4,12,47.6,39.7,38.6,52.4c-6.6,9.3-19-0.3-19-0.3
		s10.1,14.1,2.3,21.2c-7.1,6.5-16.3-1.5-16.3-1.5s4.7,9.6-3.4,14.5c-9.7,5.9-17.8-15.2-32.8-17.6
		C264.2,384.1,251.5,296.6,251.5,296.6z"/>
	<path class="st2" d="M282.5,332c9,4,27.2,18.3,35.3,35.5c0.2,0.4,0,0.7-0.3,0.4c-10.2-13.3-22-25.3-35.2-35.8
		C282.3,332.1,282.4,331.9,282.5,332z"/>
	<path class="st2" d="M271,349.9c7.4,4.2,25.5,19.8,33.1,37.6c0.2,0.4,0,0.7-0.3,0.4c-9.5-13.8-20.6-26.5-33-37.8
		C270.7,350,270.8,349.8,271,349.9z"/>
	<path class="st2" d="M303.8,387.9c5.2,4,14,5.7,17.9-0.9c3-6.2-0.8-13.6-4.4-18.8l-1.3-1.7c3.1,2.3,6.5,4.5,10.3,5.3
		c6.7,1.9,12.3-3.7,11.5-10.4c-1.3-9.7-8.9-16.8-15.2-23.6c-5.6-6-11.6-11.6-18-16.6c6.3,3,12.4,6.4,18.3,10.2
		c4.4,2.8,8.1,6.5,12.7,9c13.2,7.6,19.8,0.1,11.3-12.4c-10.6-14.7-34.4-28.1-52.1-31.6c18.2,3.3,41.7,16.1,52.9,31.1
		c2.2,3.2,4.3,7,4,11.1c-0.3,5-4.9,6.7-9.2,5.7c-7.9-1.6-13.6-7.6-20.1-11.9c-4.3-2.8-8.8-5.4-13.4-7.7l0.6-1
		c4.9,4.2,9.5,8.7,13.9,13.4c7,7.7,17.8,17.7,14.9,29.2c-2.7,7.5-10.5,8-16.7,4.6c-1.5-0.7-2.9-1.6-4.2-2.6l0.5-0.5
		c3.6,5.5,7.4,13,4.1,19.4C317.9,393.8,309.1,392,303.8,387.9L303.8,387.9z"/>
	<path class="st2" d="M116.2,344.3c3-3.1,11.7-12.8,25.2-18.6c11.7-5.1,46.4-10.7,55-11.3c0.2,0,0.3,0.2,0.1,0.3
		c-7.4,2.1-40.8,7.9-53.3,13.2c-9.7,4.2-18.6,9.8-26.6,16.7C116.2,344.6,116,344.5,116.2,344.3z"/>
	<path class="st4" d="M203.4,304.9l-81.6-14.4c0,0,55.7-72.2,78.1-88.8c25.2-18.6,29.2-1.7,25.1,27.8S203.4,304.9,203.4,304.9z"/>
	<path class="st5" d="M187.6,261.5c-1-2.7-2.3-5.2-4-7.5c0.2,2.8,0.9,5.6,1.9,8.3c1,2.7,2.3,5.2,4,7.5
		C189.3,266.9,188.7,264.1,187.6,261.5z M139,268.6L139,268.6c-0.9,1.4-1.6,2.8-2.3,4.2c-1.2,2.6-2.1,5.3-2.5,8.2
		c1.8-2.2,3.4-4.6,4.5-7.2c1.2-2.5,2-5.1,2.5-7.9L139,268.6z M215.9,212c-1.2,2.6-2.1,5.3-2.5,8.2c3.6-4.4,6.1-9.7,7.1-15.4
		C218.6,206.9,217.1,209.4,215.9,212L215.9,212z"/>
	<path class="st2" d="M135.8,277.4c2.9,0,28.4,4.2,33.9,5.2c5.5,1,28.2,4.9,33.8,6.5c0.1,0,0.2,0.1,0.2,0.3c0,0.1-0.1,0.1-0.2,0.2
		c-5.8-0.4-28.6-4.3-34.3-5.2c-5.7-0.9-30.8-5.5-33.5-6.4C135.5,277.7,135.6,277.4,135.8,277.4z"/>
	<path class="st2" d="M199.7,304c2.5,0.3,4,0.3,4,0.3c2.8-11.2,6.4-22.7,9.7-33.8c3.3-11.3,7-22.5,10.5-33.8c0-0.2,0.3-0.1,0.3,0.1
		c-1.6,6.5-3.2,13-4.8,19.4c0.3-0.8,0.7-1.5,1-2.3c1.2-2.7,2.5-5.4,3.7-8.2c0.1-0.2,0.5-0.1,0.4,0.1c-0.9,2.9-1.9,5.8-3.1,8.5
		c-0.9,1.9-1.9,3.8-3,5.7c-1,3.7-1.9,7.4-3,11.1c-3.3,11.3-6,24.1-10.2,35.1c-2-0.4-3.9-1-5.7-1.7c-0.1-0.1-0.2-0.3-0.1-0.4
		C199.5,304.1,199.6,304,199.7,304z"/>
	<path class="st3" d="M264.4,222.8c-11.1,3.8-32.2-11.7-41.3-25c-0.6-0.9-0.1-11.2-0.1-23.8c0-7.6-0.2-16.1-1-23.8
		c-0.2-1.6,49.6,7.1,49.6,7.1s-3.2,16.6-1.8,30.1c0.1,1.1,0.3,2.1,0.6,3.1c0,0.1,0.1,0.3,0.1,0.5C272.1,197,275.2,219.1,264.4,222.8
		z"/>
	<path class="st2" d="M271.7,157.3c-1.4,7.8-2.1,15.7-2.2,23.6c-23.5,8.1-42.1-4.5-46.4-7.8c0-7.4-0.2-15.6-1-23L271.7,157.3z"/>
	<path class="st2" d="M292.9,135.5c0,0-1.8,11.5-1.3,15.6c0.6,4.1,9.1,9.3,9.1,9.3s-10.7,2.5-13.5,1.4s-6.7-9-6.7-9s3,12.4,7,13.6
		c2.5,0.7-6.4-0.2-6.4-0.2c-2.9-0.5-5.6-2.1-7.4-4.5C271.2,157.9,292.9,135.5,292.9,135.5z"/>
	<path class="st3" d="M295.3,92.7c2.5,17.9-14.5,65.6-28.3,74.7c-20.1,13.1-49.1,10-59.2-13.3c-9.8-22.6,13.3-84.4,28.5-92.2
		C258.5,50.4,291.7,66.4,295.3,92.7z"/>
	<path class="st2" d="M285.9,135.3c-7.6-5.2-2.3-34.7-2.3-34.7l-6.8,14.9c0,0-4.7-7.4-5.4-15.3c-0.5-5.7,2.5-12.3,4.4-15.5
		c0,0-12.5,6.6-24.1,5.8c-4.3-0.3-33.2-10.2-32.6-12c1.7-5.4,19.6-20.7,28.5-23.2c10.3-2.9,24.1-4.4,39.2,8.1s15.9,25.1,15.5,34.6
		C302,107.6,288.7,137.2,285.9,135.3z"/>
	<path class="st3" d="M277.6,133.1c0,0,15.2-12.5,21.1-6.7c6,5.8-8.4,26.1-17.5,26.9c-4.8,0.7-9.2-2.5-10-7.3c0-0.1,0-0.2,0-0.4
		L277.6,133.1z"/>
	<path class="st2" d="M294.4,132.1c0.1,0,0.1,0.2,0,0.2c-6.4,0.7-11,5.3-14.7,10.3c2.3-1.7,5-2.2,7.3,0.7c0.1,0.2-0.1,0.3-0.2,0.3
		c-1.9-1.2-4.4-1.1-6.2,0.2c-1.5,1.1-2.8,2.4-4,3.9c-0.4,0.4-1.3-0.1-0.9-0.6c0,0,0.1-0.1,0.1-0.1
		C277.7,139.5,286.3,130.7,294.4,132.1z"/>
	<path class="st4" d="M266.1,53.4c6.9-0.8,13.9-0.5,20.7,0.8c7.6,1.6,30,11.1,33.9,17.6s-2,28.6-2.9,31.8
		c-0.9,3.2-8.8,21.9-17.3,24.1c-8.5,2.3,1.9-30.5-5.4-45C287.8,68.3,266.1,53.4,266.1,53.4z"/>
	<path class="st6" d="M266.1,53.4c0,0,21.7,14.9,29,29.4s-3.1,47.2,5.4,45c3.7-1,6.2-3.5,9.2-8.2c1.8-10,2.9-26-1.5-38.9
		c-4.2-12.1-15.3-21.2-28.4-27.4C275.2,52.9,270.7,53,266.1,53.4z"/>
	<path class="st4" d="M292,146.4c2.3-8.9,1.4-35-3.3-51.5s-29.2-33.4-33.1-34.5c-9.4-2.6-13.5-0.9-14.7-2.2s10.7-5,13.8-5.7
		c3.1-0.7,11.3-2,15.3-0.5c4,1.5,27.9,12.3,33.3,25.9c5.4,13.6,8.1,47.4,3.2,54.2c-1.2,1.6-4,2-5.6,4.3c-2.2,3-4.2,6.7-6,8.7
		C293.4,146.8,291.8,147.2,292,146.4z"/>
	<path class="st2" d="M288.6,88.3c2.6-0.6,5.1-1.3,7.5-2.3c2.5-1,4.8-2.2,7-3.7c0.2-0.1,0.3,0.1,0.2,0.2c-2,1.9-4.3,3.4-6.8,4.6
		c-2.5,1.1-5.2,1.7-7.9,1.8C288.4,88.8,288.3,88.3,288.6,88.3z"/>
	<path class="st2" d="M295.1,137.8c0.5-0.5,1-1,1.6-1.5c0.6-0.6,1.1-1.2,1.5-1.9c0.7-1.4,1.5-2.7,2.4-3.9c0.9-0.8,1.9-1.6,3-2.2
		c1.3-0.6,2.3-1.7,2.9-2.9c0-0.1,0.1-0.1,0.2-0.1c0.1,0,0.1,0.1,0.1,0.2c-0.9,2.6-3.3,3.9-5.2,5.7c-1.2,1.2-1.7,2.8-2.7,4.1
		c-0.8,1.3-2.1,2.3-3.5,2.8C295.1,138.3,294.9,138,295.1,137.8z"/>
	<path class="st2" d="M295.2,127.4c1.2-0.7,2.3-1.3,3.4-2.1c1-0.8,2-1.7,3-2.6c0.9-0.9,1.8-1.9,2.7-2.8c1.1-1.1,2.3-2.1,3.3-3.2
		c0.1-0.2,0.3,0.1,0.2,0.2c-1,1.2-1.9,2.6-2.9,3.8c-0.9,1.1-1.8,2-2.9,3c-1,0.9-2,1.7-3.1,2.4c-1.1,0.7-2.3,1.3-3.6,1.5
		c0,0-0.1,0-0.1,0S295.2,127.5,295.2,127.4z"/>
	<path class="st2" d="M295,117.9c2.3-0.9,4.5-2.2,6.5-3.7c1.9-1.5,3.8-3.2,5.6-4.8c0.1-0.1,0.3,0.1,0.2,0.2
		c-1.5,2.1-3.3,3.9-5.2,5.6c-1,0.8-2,1.4-3.1,2c-1.2,0.5-2.5,0.9-3.9,1.1C294.9,118.2,294.8,118,295,117.9z"/>
	<path class="st2" d="M294.3,108.6c1.1-0.3,2.2-0.8,3.1-1.5c1.1-0.7,2.1-1.5,3.2-2.2s2-1.5,3-2.2c1.1-0.7,2-1.6,2.6-2.6
		c0.1-0.2,0.3,0,0.3,0.1c-0.5,1.2-1.2,2.2-2.1,3c-1,1-2,1.9-3.1,2.7c-1.1,0.8-2.2,1.5-3.4,2.2c-1,0.7-2.2,1-3.4,1
		c-0.1,0-0.2-0.1-0.2-0.2C294.1,108.7,294.2,108.6,294.3,108.6z"/>
	<path class="st2" d="M295.3,97.5c1.1-0.5,2.1-1,3.2-1.6c1-0.6,2-1.2,3-1.9c1-0.7,2.1-1.4,3.1-2.1c0.1-0.1,0.2,0,0.2,0
		c0.1,0.1,0,0.2,0,0.2l0,0c-0.8,0.9-1.7,1.8-2.7,2.6c-1,0.8-2,1.5-3,2.1c-1,0.6-2.1,1.2-3.2,1.7c-1.1,0.6-2.3,0.9-3.5,1
		c-0.1,0-0.2-0.1-0.2-0.2c0-0.1,0-0.1,0.1-0.2C293.2,98.5,294.2,97.9,295.3,97.5z"/>
	<path class="st2" d="M283.6,81.1c1.2-0.8,2.4-1.5,3.7-2.2c1.3-0.7,2.7-1.3,4-1.8c2.7-1.1,5.4-1.8,8.3-2.2c0.2,0,0.3,0.2,0.1,0.3
		c-5.3,2.1-10.7,4-15.9,6.2c-0.1,0-0.2,0-0.2-0.1C283.5,81.2,283.6,81.1,283.6,81.1L283.6,81.1z"/>
	<path class="st2" d="M280.9,71.9c1.2-0.7,2.5-1.3,3.9-1.8c2.9-0.9,5.8-1.4,8.8-1.6c0.1,0,0.2,0.1,0.2,0.1c0,0.1,0,0.1-0.1,0.2
		c-2.8,0.7-5.5,1.4-8.2,2.3c-1.4,0.4-2.7,0.9-4,1.5c-1.3,0.6-2.4,1.4-3.7,2.1c-0.1,0-0.2-0.1-0.2-0.2
		C278.6,73.4,279.7,72.5,280.9,71.9z"/>
	<path class="st2" d="M274.9,66c1.2-0.7,2.4-1.4,3.7-1.9c2.4-0.9,5-1.5,7.6-1.6c0.2,0,0.2,0.3,0,0.3c-2.5,0.6-5,1.3-7.4,2.3
		c-1.2,0.5-2.4,1-3.6,1.6c-1.1,0.6-2.3,1.2-3.5,1.7c-0.1,0-0.2-0.1-0.1-0.2C272.6,67.5,273.7,66.7,274.9,66z"/>
	<path class="st2" d="M271.1,60c1.2-0.4,2.3-0.8,3.5-1.2c1.1-0.4,2.4-0.6,3.6-0.7c0.1,0,0.2,0.1,0.2,0.2c0,0.1-0.1,0.2-0.2,0.2
		c-2.2,0.8-4.5,1.7-6.7,2.5c-2,0.9-3.9,2.1-5.7,3.4c-0.1,0.1-0.2,0-0.1-0.1C267,62.3,268.9,60.8,271.1,60z"/>
	<path class="st2" d="M265.2,56.4c2.2-1,4.6-1.5,7-1.6c0.2,0,0.2,0.3,0,0.3c-2.3,0.4-4.5,1.1-6.6,2.2c-2.1,1-4.1,2.3-5.9,3.7
		c-0.1,0.1-0.2,0-0.2-0.1C261,58.9,262.9,57.4,265.2,56.4z"/>
	<path class="st2" d="M255.3,57.3c0.4-0.4,0.8-0.7,1.2-1.1c0.8-0.7,1.8-1.2,2.7-1.7c2-0.9,4.1-1.6,6.2-2.1c0.2,0,0.3,0.2,0.1,0.3
		c-2.1,0.5-4,1.3-5.9,2.3c-0.9,0.5-1.8,1-2.6,1.7c-0.4,0.3-0.8,0.6-1.2,1c-0.4,0.4-0.7,0.7-1.2,1c-0.1,0-0.2,0-0.2-0.1
		c0,0,0-0.1,0-0.1C254.6,58.1,254.9,57.7,255.3,57.3z"/>
	<path class="st2" d="M249.9,56c0.7-0.5,1.5-1,2.2-1.4c0.7-0.4,1.5-0.8,2.3-1.2c0.8-0.3,1.7-0.6,2.5-1c0.2-0.1,0.3,0.2,0.1,0.3
		c-0.8,0.3-1.7,0.7-2.4,1.2c-0.7,0.4-1.5,0.8-2.2,1.3l-2.2,1.3c-0.7,0.5-1.5,0.9-2.3,1.3c-0.1,0-0.2-0.1-0.1-0.2
		C248.4,57,249.1,56.5,249.9,56z"/>
	<path class="st3" d="M372.7,353.8c20,13,37.3-9.7,36.5-26.3c-1.9-39-38.8-101.4-60.7-122.6c-8.2-7.9-59.1,37.5-54.5,48.7
		C299.1,265.9,335.5,329.7,372.7,353.8z"/>
	<path class="st2" d="M309.1,280.2c7.4,10.1,17.6,24.3,25.1,34.2c8.6,11.1,17.1,22.5,27.8,31.7C342.4,333.3,320.6,300.8,309.1,280.2
		z"/>
	<path class="st3" d="M297.1,181.1c1.9-7.4-4.4-22.6-4.6-33.2c-0.2-10.6,9.3-20,12.8-17.8c3.5,2.3,2.1,6.9,7.8,21.8
		c3.7,9.6,19.5,24.8,24.3,43.1C339.9,204.2,295.2,188.5,297.1,181.1z"/>
	<path class="st3" d="M297.1,181.1c1.9-7.4-4.4-22.6-4.6-33.2c-0.2-10.6,9.3-20,12.8-17.8c3.5,2.3,2.1,6.9,7.8,21.8
		c3.7,9.6,19.5,24.8,24.3,43.1C339.9,204.2,295.2,188.5,297.1,181.1z"/>
	<path class="st6" d="M297.1,181.1c1.9-7.4-4.4-22.6-4.6-33.2c-0.2-10.6,9.3-20,12.8-17.8c3.5,2.3,2.1,6.9,7.8,21.8
		c3.7,9.6,19.5,24.8,24.3,43.1C339.9,204.2,295.2,188.5,297.1,181.1z"/>
	<path class="st3" d="M238.3,155.4c-3.4,8.9,19.1,15.5,19.1,15.5s-6.4,1.2-10.1,6.4c-4.1,5.9,3.3,15,3.3,15
		c-3.9,1.8-7.3,4.7-9.5,8.4c-3.4,6,2.8,16.3,2.8,16.3s-4.5,5.6-3.7,12.7c1.3,12.1,18.7,19,28.7,25.3c10.6,6.8,36.3,8.8,42.1,14.5
		l39.5-61.7c0,0-36.2-45.7-49.6-50C289.6,154,243.5,141.9,238.3,155.4z"/>
	<path class="st2" d="M257.6,170.6c12.9,1,25.5,5.2,37.6,9.3c0.1,0,0.2,0.2,0.1,0.3c0,0.1-0.2,0.2-0.3,0.1
		c-12-4.2-25.4-5.4-37.6-9.1c-0.2,0-0.3-0.2-0.3-0.4C257.3,170.7,257.5,170.6,257.6,170.6L257.6,170.6z"/>
	<path class="st2" d="M251.3,191.4c2.9,0.5,5.7,1.4,8.4,2.7c2.9,1.2,5.8,2.3,8.6,3.6c5.7,2.5,11.4,5.1,17,7.9
		c0.2,0.1,0.1,0.5-0.2,0.4c-5.7-2.5-11.5-4.9-17.3-7.1c-2.9-1.1-5.8-2.2-8.8-3.3c-2.8-0.8-5.6-2-8.2-3.4c-0.2-0.2-0.2-0.4-0.1-0.6
		C251,191.5,251.1,191.4,251.3,191.4z"/>
	<path class="st2" d="M244.2,217c2.5,0.2,5.1,1.8,7.4,2.8c2.6,1.2,5.2,2.4,7.8,3.5c5.2,2.3,10.4,4.7,15.7,6.8
		c0.3,0.1,0.1,0.5-0.2,0.4c-5.4-2.1-10.8-4.2-16.1-6.4c-2.6-1.1-5.2-2.2-7.9-3.3c-2.2-0.9-5.1-1.9-6.9-3.6
		C244,217.1,244.1,217,244.2,217C244.1,217,244.2,217,244.2,217z"/>
	<path class="st2" d="M245.9,239.7c-7.2-6.7-8.4-15.2-2.3-23.2v0.8c-3.1-4.9-6-11.3-3.4-17.1c2.2-4.3,6-7.6,10.6-9.1l-0.5,1.9
		c-6.2-6.2-7.7-18.1,1.5-22.2c1.2-0.5,2.5-0.8,3.7-0.9l-0.3,2.2c-5.8-2.2-11.5-4.7-15.8-9.3c-4-4.5-2.6-10.2,3.3-11.8
		c7.4-2.1,15.2-1.3,22.6-0.7c6,0.6,11.9,1.5,17.8,2.7c-8.9-1.4-17.8-2.1-26.8-2.1c-4.4-0.1-8.8,0.4-13.1,1.6
		c-2.6,0.8-4.9,2.7-4.3,5.5c1.8,6.2,11.3,9.8,16.9,12l5.2,1.8l-5.5,0.4c-4.2,0.4-7.5,3.6-8,7.8c-0.7,4.8,2.2,9.5,5.5,12.8l-1.7,0.5
		c-4,1.3-7.3,4.1-9.3,7.8c-2.3,5,0.3,11,2.8,15.5l0.3,0.5l-0.3,0.4C238.5,225,239.4,232.7,245.9,239.7L245.9,239.7z"/>
</g>
<path class="st4" d="M371.2,397.3c2,1.2,4.2,2.1,6.4,2.8c2.1,0.8,4.3,1.5,6.6,1.9c1.1,0.2,2.2-0.1,3.1-0.9c0.1-0.1,0.2-0.2,0.3-0.4
	c0.1,0,0.2-0.1,0.2-0.2c0,0,0.2-0.2,0.3-0.2l0,0c0.2-0.1,0.3-0.3,0.4-0.5c0.2-0.3,0.4-0.7,0.2-0.8c0.3-1.3,0.3-2.7,0-4
	c-0.4-2.3-0.9-4.6-1.5-6.8c-0.6-2.1-1.4-4.2-2.3-6.1c-0.6-1.2-1.4-3-3-3.3c-0.4-0.1-0.8,0-1.2,0.2c-0.1,0-0.1,0-0.2,0.1
	c-0.7,0.5-1.1,1.1-1.3,1.9c-0.4,1.7,0.4,3.4,1.2,4.8c0.9,2,1.9,4,2.9,5.9c-0.6-0.8-1.2-1.6-1.7-2.4c-1.6-2.1-3.2-4.2-4.9-6.2
	c-1.2-1.4-2.5-3.3-4.3-3.8c-0.9-0.3-1.8-0.1-2.6,0.4c-0.1,0.1-0.2,0.2-0.3,0.3c-0.2,0.2-0.3,0.4-0.4,0.7c-0.3,1.2,0,2.5,0.9,3.4
	c1.5,1.9,3.1,3.6,4.8,5.3c1.7,1.8,3.4,3.6,5.2,5.4l0.9,0.9c-2.4-1.6-4.9-3.2-7.3-4.8c-1.5-1-3.1-2-5-1.4c-0.6,0.2-1.1,0.6-1.4,1.1
	c-0.1,0.1-0.1,0.2-0.2,0.3c0,0.1-0.1,0.1-0.1,0.2c0,0.1-0.1,0.1-0.1,0.2c-0.2,0.6-0.2,1.3,0,1.9C367.3,395,369.5,396.3,371.2,397.3z
	"/>
<path class="st6" d="M366.7,391.1c2.5,2.6,5.8,4.2,9.1,5.7c3.7,1.6,7.5,3,11.4,4.3c0.1-0.1,0.2-0.2,0.3-0.4c0.1,0,0.2-0.1,0.2-0.2
	c0,0,0.2-0.2,0.3-0.2l0,0c0.2-0.1,0.3-0.3,0.4-0.5l-0.2-0.3c-0.5-3.4-1.3-6.8-2.5-10c-1.2-3.5-2.2-7.9-5.1-10.5
	c-0.1,0-0.1,0-0.2,0.1l0,0c0.4,3.6,1.4,7.1,2.8,10.5c0.9,2.3,1.8,4.7,2.8,7.1c-2.1-2.8-4.3-5.5-6.6-8.1c-1.8-2-3.7-4-5.7-5.8
	c-1.2-1.2-2.6-2.3-4.1-3.1c-0.1,0.1-0.2,0.2-0.3,0.3c2,4,5.5,7.2,8.5,10.4c3.2,3.4,6.4,6.8,9.7,10.2c-3.3-2-7-3.6-10.4-5.4
	c-3.3-1.9-6.7-3.4-10.2-4.7c-0.1,0.1-0.1,0.2-0.2,0.3c3.7,1.4,7.2,3.1,10.7,5c3,1.6,6.2,3.1,9.2,4.8c-3.3-1.2-6.6-2.3-9.8-3.7
	c-3.6-1.5-7.3-3.2-10.1-5.9C366.7,390.9,366.7,391,366.7,391.1z M387.8,398.9l-0.6-0.8c-2.8-6.1-4.9-12.4-6.5-18.8
	c2.6,2.7,3.6,7,4.7,10.4C386.5,392.6,387.3,395.7,387.8,398.9L387.8,398.9z M378.6,390.5c-3.3-3.3-6.3-6.8-9-10.6
	c3.8,2.7,7.2,5.9,10.2,9.5c2.5,2.8,4.8,5.7,7,8.8c0.2,0.5,0.5,1.1,0.7,1.6C384.6,396.7,381.6,393.6,378.6,390.5L378.6,390.5z"/>
<path class="st7" d="M383.2,402.6c2.8,2.2,5.9,4.1,9,5.8c1.4,0.7,3.5-1.3,2.6-3.3c-0.4-0.9-4.3-7.5-5-8.6c-0.8-1.3-3.7,1.2-4.5,1.8
	C384.3,399.3,382.3,401.6,383.2,402.6z"/>
<path class="st7" d="M390.4,403.6c4.2,3.5,8,7.4,11.2,11.8c3.3,4.2,6.2,8.8,8.6,13.5c5,9.6,8.6,20.4,9.1,31.2c0,0.3-0.4,0.4-0.4,0.1
	c-1.9-10.7-4.7-20.9-9.7-30.6c-2.5-4.7-5.3-9.3-8.6-13.5c-3.4-4.2-7-8.2-10.9-11.9C389.5,403.8,390,403.3,390.4,403.6z"/>
<path class="st4" d="M381.3,423.4c1.4,0.4,2.9,0.7,4.3,0.9c1.4,0.2,2.8,0.3,4.3,0.3c0.7,0,1.4-0.4,1.7-0.9c0.1-0.1,0.1-0.2,0.1-0.3
	c0.1,0,0.1-0.1,0.1-0.2l0.1-0.2l0,0c0.1-0.1,0.2-0.2,0.2-0.3c0.1-0.2,0.2-0.5,0-0.5c0-0.8-0.1-1.7-0.5-2.4c-0.5-1.4-1.2-2.7-1.8-4
	c-0.6-1.2-1.4-2.4-2.2-3.5c-0.5-0.7-1.3-1.7-2.2-1.6c-0.3,0-0.5,0.1-0.7,0.3c0,0-0.1,0-0.1,0.1c-0.3,0.4-0.5,0.8-0.5,1.3
	c0.1,1.1,0.6,2,1.3,2.8c0.8,1.1,1.7,2.2,2.6,3.3l-1.4-1.2c-1.2-1.1-2.5-2.1-3.8-3.1c-0.9-0.9-2-1.5-3.1-1.8
	c-0.6-0.1-1.1,0.2-1.5,0.6c-0.1,0.1-0.1,0.1-0.2,0.2c-0.1,0.1-0.2,0.3-0.2,0.5c0,0.8,0.3,1.5,0.9,1.9c1.2,1,2.4,1.8,3.6,2.6
	c1.3,0.9,2.6,1.8,3.9,2.6l0.7,0.4l-5.1-2c-1-0.6-2.2-0.6-3.2-0.2c-0.3,0.2-0.6,0.5-0.7,0.8c0,0.1-0.1,0.1-0.1,0.2c0,0,0,0.1,0,0.1
	c0,0,0,0.1,0,0.1c0,0.4,0.1,0.8,0.3,1.2C378.6,422.6,380.2,423.1,381.3,423.4z"/>
<path class="st6" d="M377.8,420.2c1.9,1.2,4.1,2,6.3,2.3c2.5,0.5,5,0.9,7.5,1.2c0.1-0.1,0.1-0.2,0.1-0.3c0.1,0,0.1-0.1,0.1-0.2
	l0.1-0.2l0,0c0.1-0.1,0.2-0.2,0.2-0.3l-0.2-0.2c-0.7-2-1.7-4-2.8-5.8c-1.2-2-2.3-4.6-4.5-5.8c0,0-0.1,0-0.1,0.1l0,0
	c0.7,2.2,1.8,4.2,3.1,6.1c0.8,1.3,1.7,2.6,2.6,4c-1.6-1.4-3.3-2.8-5.1-4.1c-1.4-1-2.8-1.9-4.2-2.8c-0.9-0.6-1.9-1-2.9-1.4
	c-0.1,0.1-0.1,0.1-0.2,0.2c1.8,2.2,4.3,3.7,6.6,5.2s4.8,3.4,7.3,5c-2.3-0.8-4.7-1.3-7.1-2c-2.2-0.7-4.5-1.2-6.9-1.5
	c0,0.1-0.1,0.1-0.1,0.2c2.4,0.4,4.8,1,7.2,1.7c2.1,0.6,4.2,1.1,6.2,1.7c-2.2-0.3-4.3-0.6-6.5-1c-2.5-0.4-4.8-1.1-7-2.3
	C377.7,420.1,377.7,420.2,377.8,420.2z M391.7,422.3c-0.2-0.2-0.3-0.3-0.5-0.4c-2.5-3.4-4.6-6.9-6.4-10.7c1.9,1.3,3.1,3.8,4.2,5.7
	C390.1,418.6,390.9,420.4,391.7,422.3L391.7,422.3z M385,418.3c-2.5-1.6-4.8-3.3-6.9-5.3c2.7,1.2,5.2,2.7,7.5,4.5
	c1.9,1.4,3.7,2.9,5.4,4.5c0.2,0.3,0.4,0.6,0.6,0.9C389.4,421.4,387.2,419.9,385,418.3L385,418.3z"/>
<path class="st7" d="M389.3,425.2c2,1,4.1,1.7,6.3,2.3c1,0.2,2-1.3,1.2-2.3c-0.4-0.5-3.6-4-4.2-4.7c-0.6-0.7-2.1,1.2-2.5,1.7
	C389.7,422.7,388.7,424.7,389.3,425.2z"/>
<path class="st7" d="M393.9,424.8c3,1.6,5.9,3.5,8.4,5.8c2.5,2.2,4.9,4.6,7,7.2c4.4,5.2,7.7,11.4,9.6,17.9c0,0.2-0.2,0.3-0.3,0.1
	c-2.4-6.3-5.7-12.2-9.9-17.5c-2.1-2.6-4.5-5-7-7.2c-2.6-2.1-5.3-4.1-8.2-5.9C393.4,425.1,393.6,424.7,393.9,424.8z"/>
<path class="st4" d="M475.9,433.7c-2.2,1-4.4,1.7-6.7,2.2c-2.2,0.6-4.4,1.1-6.7,1.3c-1.1,0.1-2.2-0.3-2.9-1.2
	c-0.1-0.1-0.2-0.2-0.3-0.4c-0.1,0-0.2-0.2-0.1-0.3c-0.1-0.1-0.2-0.2-0.3-0.3l0,0c-0.2-0.2-0.3-0.3-0.4-0.5c-0.2-0.3-0.3-0.7-0.2-0.8
	c-0.2-1.3-0.1-2.7,0.4-4c0.6-2.2,1.3-4.5,2.2-6.6c0.8-2,1.7-4,2.9-5.8c0.7-1.2,1.7-2.9,3.3-3c0.4,0,0.8,0.1,1.2,0.3
	c0.1,0,0.1,0.1,0.1,0.1c0.6,0.5,1,1.3,1.1,2.1c0,1.7-0.5,3.3-1.6,4.7c-1.1,1.9-2.3,3.8-3.5,5.6l2-2.2c1.7-2,3.6-3.9,5.4-5.7
	c1.3-1.3,2.8-3,4.7-3.4c0.9-0.2,1.8,0.1,2.5,0.6c0.1,0.1,0.2,0.2,0.3,0.3c0.2,0.2,0.3,0.5,0.4,0.7c0.2,1.2-0.2,2.4-1.2,3.3
	c-1.7,1.7-3.4,3.3-5.3,4.8c-1.9,1.6-3.8,3.3-5.7,4.8l-1,0.8c2.6-1.4,5.2-2.7,7.7-4c1.5-0.8,3.3-1.7,5.1-0.9c0.6,0.2,1,0.6,1.3,1.2
	c0,0.1,0.1,0.2,0.1,0.3l0.1,0.2c0,0.1,0,0.1,0.1,0.2c0.1,0.6,0.1,1.3-0.2,1.9C480,431.9,477.7,432.9,475.9,433.7z"/>
<path class="st6" d="M480.9,427.8c-3.1,2.4-7,3.7-10.7,4.9c-3.3,1.1-6.7,1.9-10.1,2.7c3.1-1.4,6.4-2.6,9.6-3.9
	c3.6-1.6,7.3-2.9,11.1-4c0-0.1-0.1-0.2-0.1-0.3c-3.6,0.9-7.2,2.1-10.6,3.7c-3.6,1.4-7.4,2.7-10.8,4.4c3.6-3,7.1-6.2,10.6-9.2
	c3.3-2.9,7.1-5.8,9.5-9.5c-0.1-0.1-0.2-0.2-0.3-0.3c-1.6,0.7-3.1,1.6-4.4,2.7c-2.1,1.6-4.2,3.4-6.2,5.2c-2.6,2.3-5,4.8-7.3,7.4
	c1.2-2.2,2.4-4.5,3.5-6.7c1.7-3.2,3-6.7,3.8-10.2l0,0c0,0-0.1-0.1-0.1-0.1c-3.1,2.3-4.5,6.6-6,10c-1.5,3.1-2.6,6.4-3.4,9.8l-0.3,0.3
	c0.1,0.2,0.2,0.4,0.4,0.5l0,0c0.1,0.1,0.2,0.2,0.3,0.3c0,0.1,0,0.2,0.1,0.3c0.1,0.1,0.2,0.3,0.3,0.4c4-0.9,7.9-1.9,11.7-3.2
	c3.4-1.2,6.9-2.4,9.6-4.8C480.9,428,480.9,427.9,480.9,427.8z M462.5,424.7c1.5-3.3,2.9-7.4,5.7-9.9c-2.1,6.3-4.9,12.4-8.2,18.2
	l-0.7,0.8C460.1,430.6,461.2,427.6,462.5,424.7z M459.5,434.7l0.9-1.5c2.5-2.8,5.1-5.5,7.8-8.1c3.3-3.3,7-6.2,11-8.5
	c-3,3.5-6.4,6.8-10,9.7C466,429.1,462.7,431.9,459.5,434.7L459.5,434.7z"/>
<path class="st7" d="M463.5,437.9c-3,1.9-6.2,3.6-9.5,4.9c-1.5,0.6-3.3-1.7-2.3-3.5c0.5-0.8,5-7,5.8-8.1c0.9-1.3,3.6,1.5,4.3,2.2
	C462.7,434.4,464.5,437,463.5,437.9z"/>
<path class="st7" d="M456.2,438.2c-4.5,3-8.6,6.6-12.3,10.7c-3.7,3.9-7,8.1-9.9,12.7c-5.8,9.1-10.5,19.5-12,30.3
	c0,0.3,0.4,0.4,0.4,0.1c2.9-10.5,6.6-20.4,12.5-29.5c2.9-4.5,6.2-8.7,9.8-12.6c3.8-3.8,7.8-7.5,12-10.9
	C457.1,438.5,456.6,437.9,456.2,438.2z"/>
<path class="st7" d="M459.8,386.5c-0.6,1.2-6.6,7.3-9,9.2c-1.5,1.2-4.4-0.6-3.9-3.1c0.2-1.2,3-9.8,3.5-11.3c0.6-1.8,4.7,0.3,5.7,0.9
	C457.6,382.9,460.6,385.1,459.8,386.5z"/>
<path class="st7" d="M476.8,396.4c-5.3,3.6-9.9,8.1-13.6,13.4c-3.6,5.4-6.2,11.4-9.1,17.2c-4.6,9.1-10.7,18.5-20.6,22.3
	c-0.2,0.1-0.4,0-0.5-0.3c0-0.1,0-0.2,0-0.3c0,0,0,0,0-0.1c1-5.1,2.6-10.1,4.7-14.8c7.6-16.7,21.7-31.1,38.7-38.2
	C476.8,395.6,477.1,396.2,476.8,396.4z"/>
<path class="st7" d="M451.6,389.5c-4,5.2-7.3,10.8-9.9,16.8c-2.7,5.8-4.9,11.9-6.5,18.1c-3.2,12.5-4.6,26.1-2.2,38.9
	c0,0.2,0.2,0.2,0.3,0.2c0.1,0,0.2-0.1,0.2-0.2c-0.7-12.9-0.2-25.6,3.1-38.3c1.6-6.2,3.7-12.2,6.4-18.1c2.8-5.8,6-11.4,9.5-16.8
	C452.8,389.6,452,389.1,451.6,389.5z"/>
<path class="st4" d="M459.8,397.5c-0.2,0-0.4,0-0.7-0.1h-0.4c-2.5-0.5-4.6-2.2-5.5-4.7l0,0h-0.5c-1.6,0.1-7.1,0.2-9.9-4
	c-0.4-0.5-0.7-1.1-0.9-1.8c-0.1-0.2-0.1-0.4-0.2-0.5c-0.8-3.4,1.3-6.7,2.1-7.8l0.3-0.4l-0.1-0.1c-0.8-0.6-5.2-3.9-3.3-8.8
	c0.2-0.6,0.5-1.2,0.9-1.7c0.1-0.2,0.2-0.3,0.3-0.5c1.4-1.7,3.4-2.8,5.6-2.9h0.3c0,0,0-0.2,0-0.4c0-1.6,0.3-3.2,0.9-4.7
	c0-0.1,0.1-0.2,0.1-0.3c0.8-1.8,2.3-3.2,4.1-4c0.3-0.1,0.6-0.2,1-0.3l0.2-0.1c0.9-0.2,1.9-0.3,2.9-0.2h0.2c1.9,0.4,3.7,1.5,4.9,3
	l0.1,0.2h0.1c0.7-0.3,5.7-2.4,9.2,0.5c2.2,1.7,3.3,4.5,2.6,7.3c0.1,0,0.1,0,0.2,0c0.2,0,0.3,0.1,0.5,0.1c1.7,0.4,3.2,1.4,4.3,2.7
	l0.2,0.3c0.7,1.1,1.2,2.3,1.4,3.6c0.6,3.4-1.2,6.8-4.3,8.4l-0.3,0.2h-0.1c0,0,2,6-0.8,9.8c-1.4,1.8-3.6,2.8-6,2.7H469
	c-0.5,0-1.1-0.1-1.6-0.2c-0.8,1.4-1.9,2.5-3.3,3.4c-0.1,0.1-0.3,0.2-0.4,0.2C462.5,397.3,461.1,397.6,459.8,397.5z"/>
<path class="st6" d="M460.1,380.6c0-1.7-0.1-3.5-0.3-5.2l-0.1,0.2c-0.6,3.6-1.7,7.1-3.2,10.4c-0.8,1.8-1.6,3.6-2.5,5.4
	c-0.2,0.5-0.5,0.9-0.7,1.4h-0.5l0.5-1c1-2,2-3.9,2.8-6c1.3-3.4,2.4-6.8,3.2-10.3c0-0.1,0-0.1,0-0.2v-0.1c0-0.1,0-0.1,0-0.2
	c-2.8,2.4-5.7,4.6-8.9,6.5c-1.9,1.2-3.8,2.5-5.7,3.6c-0.9,0.6-1.9,1.2-2.8,1.8c-0.1-0.2-0.1-0.4-0.2-0.5c0.8-0.5,1.6-0.9,2.3-1.4
	c1.8-1.2,3.7-2.3,5.5-3.5c3.3-2.1,6.6-4.5,9.7-6.9l0,0c-3.2,1.1-6.4,1.9-9.7,2.7c-1.8,0.4-3.7,0.9-5.5,1.3h-0.2l0.3-0.4l-0.1-0.1
	l5.2-1.2c3.3-0.8,6.7-1.7,10-2.5l0,0c-2.3-0.4-4.7-0.8-7.1-1c-2.4-0.2-5.1-0.1-7.7-0.2c0,0-0.1-0.1,0-0.1c0,0,0,0,0,0
	c2.6-0.3,5.1-0.3,7.7-0.1c2.2,0.1,4.4,0.5,6.6,0.9l-0.4-0.3c-2.8-1.4-5.7-2.7-8.7-3.8c-1.7-0.6-3.5-1.2-5.2-1.6
	c-0.9-0.2-1.9-0.4-2.8-0.6c0.1-0.2,0.2-0.3,0.3-0.5c2.7,0.6,5.4,1.3,8,2.3c2.5,0.9,4.9,1.9,7.2,3.1c-1.7-1.5-3.4-3.1-5.1-4.7
	c-1.4-1.3-3-2.5-4.6-3.7h0.3c0,0,0-0.2,0-0.4c1.4,1.2,2.8,2.3,4.2,3.6c2.2,2,4.3,4.1,6.5,6l0.5,0.3c-4-4.4-7.5-9.2-10.3-14.5
	c0-0.1,0.1-0.2,0.1-0.3c1.3,2.4,2.8,4.8,4.3,7c1.9,2.6,4,4.9,6,7.4c-1.2-3.1-2-6.4-2.9-9.6c-0.8-3-1.7-6-2.3-9.1l0.2-0.1
	c0.8,2.9,1.5,5.9,2.3,8.8c0.9,3.3,2.1,6.5,3,9.8c-0.2-6.3-1-12.6-2.5-18.8h0.2c1.5,5.1,2.4,10.4,2.5,15.8c0.2-2,0.5-4,0.9-6
	c0.4-2.3,0.9-4.6,1.5-6.8l0.1,0.2h0.1c-0.5,2.3-1.1,4.7-1.5,7.2c-0.5,3-0.7,6-1.1,9v0.1l0,0c0.8-2.6,2-5,3.6-7.2
	c1.5-2.4,3.3-4.6,5.4-6.4c0,0,0.1,0,0.1,0c0,0,0,0,0,0.1c-2,2-3.7,4.2-5.2,6.6c-1.4,2-2.5,4.2-3.4,6.5l0.3-0.2
	c3.5-4,8.6-6.1,13.7-7.7c0.2,0,0.3,0.1,0.5,0.1c-2.5,0.8-4.9,1.7-7.2,2.9c-1.7,0.8-3.3,1.9-4.7,3.2c1.9-1,4-1.8,6.1-2.3
	c3.3-0.9,6.7-1.2,10.1-0.9l0.2,0.3c-3.3-0.2-6.5,0.1-9.7,0.9c-2.9,0.6-5.6,1.8-8,3.3c-0.4,0.4-0.7,0.7-1.1,1.2
	c5.4-1.3,11.4-1.9,16.8-0.5c0.1,0,0.1,0.1,0.1,0.2c0,0.1-0.1,0.1-0.2,0.1c-2.9-0.4-5.7-0.6-8.6-0.6c-2.8,0.1-5.6,0.4-8.3,1
	c-0.1,0.1-0.1,0.2-0.2,0.2c3.4,0.7,6.7,1.7,10,3c2.2,0.9,4.3,1.9,6.3,3.1l-0.3,0.2c-2.2-1.1-4.3-2.1-6.6-3c-2.9-1.1-5.8-2-8.8-2.7
	c2.4,1.8,4.5,3.9,6.4,6.1c2.3,2.6,4.3,5.4,5.9,8.4c0.1,0.1-0.1,0.2-0.2,0.1c-1.9-2.9-3.9-5.7-6.2-8.3c-1.8-2-3.7-3.8-5.7-5.6
	c2,2.8,3.7,5.8,5.1,8.9c1.3,2.8,2.4,5.6,3.2,8.6H469c-0.8-2.9-1.9-5.8-3.1-8.5c-1.6-3.3-3.5-6.6-5.5-9.7c0,0,0,0-0.1,0l0,0
	c1.4,3.7,2.4,7.6,2.9,11.5c0.6,3.3,0.9,6.5,0.9,9.8c-0.1,0.1-0.3,0.2-0.4,0.2c0-3.4-0.3-6.9-0.8-10.3c-0.7-3.8-1.7-7.6-2.9-11.3
	l-0.1,0.1c0.3,1.5,0.4,3.1,0.4,4.7c0.1,2.3,0.1,4.7,0,7.1c-0.1,3.5-0.5,7-1.2,10.5h-0.4c0.6-3.3,0.9-6.6,1.2-10
	C460.1,385.2,460.1,382.9,460.1,380.6z"/>
<path class="st6" d="M462.9,373.3c-0.1,0.1-0.2,0-0.3-0.1c0-0.1,0,0,0-0.1c-0.5-1.9-0.1-3.8,1-5.4c1.3-1.8,3-3.3,5-4.3
	c0.1,0,0.2,0,0.3,0.1c0,0,0,0.1,0,0.1C468.2,367.5,466.1,371,462.9,373.3z"/>
<path class="st6" d="M458.3,376.6c0.1-0.1,0.2,0,0.3,0.1c0,0,0,0,0,0.1l0,0c0.3,1.9-0.3,3.8-1.5,5.3c-1.5,1.7-3.4,2.9-5.4,3.7
	c-0.1,0-0.2,0-0.2-0.1c0,0,0-0.1,0-0.1C452.4,381.7,454.9,378.5,458.3,376.6z"/>
<path class="st6" d="M448.6,368.2c-0.1-0.1-0.1-0.2,0-0.2c0,0,0.1,0,0.1,0c0,0,0-0.1,0.1-0.1c1.8-0.6,3.8-0.3,5.5,0.7
	c1.9,1.2,3.4,2.9,4.5,4.8c0.1,0.1,0,0.2-0.1,0.3c0,0-0.1,0-0.1,0C454.6,373.2,451.1,371.2,448.6,368.2z"/>
<path class="st6" d="M462.1,375.9c-0.1-0.3,0.3-0.5,0.4-0.2c3.6,0,6.3,2.8,8.2,5.6c0.1,0.1,0,0.3-0.1,0.3
	C466.9,382,463.8,379,462.1,375.9z"/>
<path class="st6" d="M456.3,363c0.1-0.3,0.5-0.2,0.5,0.1c2.8,2.2,3.1,6.1,2.9,9.5c0,0.1-0.2,0.3-0.3,0.2
	C456.1,370.7,455.6,366.5,456.3,363z"/>
<path class="st7" d="M459.4,380c-0.4-0.2-0.6-0.7-1-0.9c-0.4-0.2-0.8-0.1-1.2-0.2c-0.5-0.2-0.9-0.6-1.2-1.2c-0.2-0.5-0.3-1-0.2-1.5
	c0.1-0.7,0.4-0.7,0.1-1.3c-0.9-2,0.3-4.2,2.6-3.9c0.2-0.8,0.8-1.5,1.7-1.6c1.3-0.1,2.4,0.7,2.8,1.9c1.2-0.1,2.2,0.8,2.3,2
	c0,0.6-0.1,1.1-0.5,1.5c0.7,0.7,0.9,1.7,0.6,2.6c-0.2,0.5-0.6,0.9-1,1.1c-0.4,0.2-0.9,0-1.2,0.2c-0.2,0.2-0.6,0.8-1,1.1
	c-0.4,0.3-0.8,0.5-1.3,0.5C460.4,380.4,459.9,380.3,459.4,380z"/>
<path class="st7" d="M410.7,364.5c0.3,1.4,5.5,10,7.6,12.8c1.3,1.7,5.2,0.5,5.2-2.4c0-1.3-0.7-11.9-0.9-13.7
	c-0.2-2.2-5.3-0.9-6.7-0.6C414.2,361,410.3,362.7,410.7,364.5z"/>
<path class="st7" d="M389,371.1c5,5.5,9,11.8,11.7,18.7c2.6,7.1,3.9,14.6,5.6,21.9c2.7,11.5,7,23.8,17.2,30.7
	c0.2,0.1,0.5,0.1,0.6-0.1c0.1-0.1,0.1-0.2,0.1-0.3c0,0,0-0.1,0-0.1c0.2-6-0.3-12.1-1.4-18c-4-20.9-15.9-40.9-33.2-53.5
	C389.1,370.1,388.7,370.7,389,371.1z"/>
<path class="st7" d="M419.1,370.1c3.1,6.9,5.3,14.1,6.6,21.6c1.4,7.3,2.2,14.7,2.3,22.1c0.2,14.9-1.9,30.6-8,44.4
	c-0.2,0.4-0.7,0.2-0.6-0.2c4.2-14.4,7.1-28.8,6.9-43.9c-0.1-7.4-0.9-14.8-2.3-22.1c-1.4-7.4-3.8-14.4-6.1-21.5
	C417.8,369.9,418.8,369.6,419.1,370.1z"/>
<path class="st4" d="M431.4,368c-0.2,0.2-0.3,0.3-0.5,0.5l-0.4,0.3c-2.2,1.7-5.2,2-7.7,1l0,0l-0.3,0.5c-1.2,1.4-5.1,5.7-10.5,4.9
	c-0.7-0.1-1.4-0.3-2.1-0.6c-0.2-0.1-0.4-0.2-0.5-0.3c-3.3-1.9-4.3-6-4.6-7.4c0-0.2-0.1-0.4-0.1-0.5h-0.2c-1.1,0.2-7,1.2-9.4-3.9
	c-0.3-0.6-0.5-1.3-0.7-2c-0.1-0.2-0.1-0.4-0.1-0.6c-0.4-2.4,0.3-4.8,1.9-6.6c0.1-0.1,0.1-0.2,0.2-0.3c-0.1-0.1-0.2-0.2-0.4-0.3
	c-1.3-1.2-2.3-2.6-3-4.1c0-0.1-0.1-0.2-0.1-0.3c-0.8-2-0.9-4.2-0.1-6.2c0.1-0.3,0.3-0.7,0.4-1c0-0.1,0.1-0.2,0.1-0.2
	c0.5-0.9,1.2-1.7,2-2.3l0.2-0.2c1.8-1.2,3.9-1.8,6-1.7h0.3v-0.1c0.3-0.8,2.2-6.3,7.2-6.9c3-0.5,6,0.8,7.7,3.3l0.2-0.1
	c0.1-0.1,0.3-0.2,0.4-0.3c1.6-1,3.4-1.5,5.3-1.4h0.4c1.4,0.2,2.7,0.7,3.9,1.5c3.1,2.1,4.5,6,3.4,9.6l-0.1,0.3c0,0,0,0,0,0.1
	c0,0,6.2,2.9,7.1,7.9c0.4,2.5-0.5,5-2.2,6.7l-0.4,0.4c-0.4,0.4-0.9,0.8-1.4,1.2c0.5,1.7,0.6,3.4,0.2,5.1c0,0.2-0.1,0.4-0.1,0.5
	C433.2,365.7,432.4,367,431.4,368z"/>
<path class="st6" d="M418.2,355.3c-1.4-1.3-2.8-2.5-4.4-3.6c0,0.1,0,0.2,0,0.2c2.4,3.1,4.4,6.6,5.9,10.2c0.9,2,1.7,4,2.4,6
	c0.2,0.5,0.4,1,0.6,1.6l-0.2,0.4c-0.1-0.4-0.3-0.8-0.4-1.2c-0.8-2.2-1.7-4.5-2.7-6.6c-1.7-3.5-3.6-6.9-5.8-10.1
	c-0.1,0-0.1-0.1-0.1-0.2c0,0,0,0,0-0.1l-0.1-0.2c-0.1,4-0.6,7.9-1.4,11.8c-0.4,2.4-0.9,4.8-1.3,7.2c-0.2,1.2-0.4,2.3-0.7,3.5
	c-0.2-0.1-0.4-0.2-0.5-0.3c0.2-1,0.4-1.9,0.6-2.9c0.5-2.3,0.9-4.7,1.3-6.9c0.8-4.2,1.3-8.5,1.7-12.8H413c-1.5,3.3-3.2,6.5-5,9.6
	c-1,1.8-2,3.6-3,5.4c0,0.1-0.1,0.1-0.1,0.2c0-0.2-0.1-0.4-0.1-0.5h-0.2l2.8-5c1.8-3.2,3.6-6.5,5.4-9.8l0,0c-2.1,1.6-4.1,3.1-6,4.8
	c-1.9,1.7-3.8,4-5.8,5.9c-0.1,0-0.2,0-0.1-0.1c1.6-2.2,3.5-4.3,5.6-6.1c1.8-1.6,3.6-3.1,5.6-4.5l-0.5,0.1c-3.2,1.2-6.4,2.5-9.4,4.1
	c-1.7,0.9-3.4,1.9-5.1,3c-0.9,0.6-1.7,1.2-2.6,1.8c-0.1-0.2-0.1-0.4-0.1-0.6c2.5-1.8,5.1-3.3,7.8-4.7c2.5-1.3,5.2-2.5,7.8-3.4
	c-2.5,0.3-5,0.4-7.4,0.6c-2.1,0.2-4.2,0.6-6.3,0.9c0.1-0.1,0.1-0.2,0.2-0.3c-0.1-0.1-0.2-0.2-0.4-0.3c2-0.3,3.9-0.5,5.9-0.7
	c3.2-0.3,6.4-0.4,9.6-0.7l0.6-0.2c-6.4,0-12.9-0.9-19.1-2.5c0-0.1-0.1-0.2-0.1-0.3c2.9,0.7,5.8,1.3,8.8,1.7
	c3.4,0.4,6.8,0.5,10.3,0.7c-3.3-1.4-6.6-3.1-9.8-4.8c-3-1.6-6-3.1-8.9-4.9c0-0.1,0.1-0.2,0.1-0.2c2.9,1.6,5.8,3.1,8.8,4.7
	c3.3,1.7,6.7,3.2,10,4.9c-5.2-4.5-10.8-8.5-16.7-11.9l0.2-0.2c5.2,2.6,10,5.8,14.4,9.7c-1.5-1.6-2.8-3.4-4.1-5.1
	c-1.5-2-2.9-4.1-4.3-6.2h0.3v-0.1c1.5,2.2,3,4.4,4.6,6.5c2,2.6,4.2,5,6.3,7.5l0,0l0,0l0,0c-1.4-2.5-2.4-5.3-3-8.2
	c-0.8-3-1.2-6-1.1-9.1c0,0,0.1-0.1,0.1,0c0,0,0,0,0,0c0.3,5.7,1.6,11.3,4,16.4c0-0.1,0-0.3,0-0.4c-0.6-5.8,1.6-11.3,4.1-16.6
	c0.1-0.1,0.3-0.2,0.4-0.3c-1.2,2.5-2.2,5.2-3.1,7.8c-0.6,2-0.9,4-1,6.1c0.6-2.3,1.5-4.5,2.6-6.6c1.7-3.2,4-6.2,6.7-8.6h0.4
	c-2.6,2.5-4.7,5.3-6.4,8.4c-1.6,2.7-2.7,5.7-3.3,8.8c0,0.5,0.1,1.1,0.1,1.7c2.9-5.3,6.9-10.4,12-13.7c0.2-0.1,0.4,0.2,0.2,0.3
	c-2.4,2-4.7,4.1-6.8,6.4c-2,2.3-3.8,4.7-5.3,7.3c0,0.1,0,0.2,0,0.3c3.1-2.1,6.3-4,9.7-5.7c2.3-1.1,4.7-2,7.1-2.7l-0.1,0.3
	c-2.5,0.9-4.9,1.9-7.2,3c-3,1.5-5.8,3.2-8.6,5c3.2-0.5,6.4-0.7,9.6-0.6c3.7,0.1,7.4,0.6,11,1.5c0.1,0,0.1,0.2-0.1,0.2
	c-3.7-0.7-7.4-1.1-11.2-1.2c-2.9,0-5.8,0.1-8.6,0.4c3.7,0.5,7.3,1.3,10.9,2.5c3.1,1,6.2,2.3,9.1,3.8l-0.4,0.4
	c-2.9-1.5-6-2.8-9.1-3.8c-3.8-1.2-7.8-2.1-11.7-2.7c0,0,0,0-0.1,0l0,0c4,1.7,7.8,3.7,11.3,6.2c3,2,5.8,4.2,8.5,6.6
	c0,0.2-0.1,0.4-0.1,0.5c-2.7-2.5-5.6-4.9-8.7-7c-3.6-2.3-7.3-4.3-11.1-6.1c0,0,0,0.1,0,0.1c1.4,0.9,2.8,2,4,3.1
	c1.9,1.7,3.8,3.4,5.6,5.2c2.7,2.7,5.2,5.6,7.5,8.7l-0.4,0.3c-2.2-2.9-4.5-5.7-7-8.3C421.8,358.6,420,356.9,418.2,355.3z"/>
<path class="st6" d="M414.4,347.6c0,0.1-0.1,0.2-0.2,0.2c0,0-0.1,0-0.1,0c0,0-0.1,0-0.1,0c-1.8-1-3.1-2.7-3.6-4.8
	c-0.5-2.4-0.3-4.8,0.4-7.1c0-0.1,0.1-0.2,0.2-0.2c0.1,0,0.1,0,0.1,0.1C413.8,339.1,414.9,343.4,414.4,347.6z"/>
<path class="st6" d="M413.7,353.7c0-0.1,0.1-0.2,0.2-0.2c0,0,0.1,0,0.1,0c0,0,0.1,0,0.1,0c1.7,1.2,2.8,3,3.1,5.1
	c0.2,2.4-0.2,4.8-1.1,7.1c-0.1,0.1-0.2,0.1-0.3,0.1c0,0-0.1-0.1-0.1-0.1C413.5,362.1,412.8,357.8,413.7,353.7z"/>
<path class="st6" d="M399.9,355.1c-0.1,0-0.2-0.1-0.2-0.2c0,0,0-0.1,0-0.1c0,0,0-0.1,0-0.1c0.9-1.9,2.6-3.3,4.7-3.8
	c2.3-0.6,4.8-0.6,7.1,0c0.1,0,0.2,0.1,0.2,0.2c0,0.1,0,0.1-0.1,0.1C408.3,354.1,404.1,355.5,399.9,355.1z"/>
<path class="st6" d="M416,350.1c-0.3-0.1-0.2-0.5,0.1-0.5c2.6-2.9,6.9-2.9,10.5-2.3c0.2,0,0.3,0.2,0.2,0.3
	C424.3,350.9,419.6,351.1,416,350.1z"/>
<path class="st6" d="M401.4,345.3c-0.2-0.3,0.2-0.5,0.4-0.3c3.9-0.6,7.2,2.1,9.7,4.7c0.1,0.1,0.1,0.3-0.1,0.4
	C407.4,351.1,403.6,348.4,401.4,345.3z"/>
<path class="st7" d="M417.2,355.3c-0.5,0.2-1,0-1.5,0.2c-0.5,0.2-0.7,0.6-1,0.8c-0.6,0.2-1.2,0.3-1.8,0.1c-0.5-0.2-1-0.5-1.3-1
	c-0.4-0.6-0.2-0.8-1-1c-2.3-0.7-3.1-3.4-1.2-4.9c-0.6-0.7-0.6-1.8,0-2.5c0.9-1.1,2.3-1.4,3.6-0.8c0.8-1,2.3-1.1,3.3-0.2
	c0.4,0.4,0.7,0.9,0.8,1.5c1.1-0.1,2.1,0.5,2.6,1.5c0.2,0.5,0.3,1.1,0.1,1.6c-0.1,0.4-0.7,0.8-0.8,1.1c-0.1,0.3,0.2,1.1,0.1,1.6
	c-0.1,0.5-0.3,1-0.6,1.4C418.2,354.9,417.7,355.2,417.2,355.3z"/>
<polygon class="st8" points="471.3,497.3 394.2,497.3 397.6,461.7 398.3,453.9 467.2,453.9 467.9,461.7 "/>
<polygon class="st7" points="467.7,459.2 397.6,461.7 398.3,453.9 467.2,453.9 "/>
<rect x="393.9" y="447.2" class="st8" width="77.7" height="9.4"/>
<g id="freepik--Table--inject-7">
	<path class="st7" d="M18.9,497.3c148.1-0.7,314.2-0.7,462.3,0C333.1,498,166.9,498,18.9,497.3z"/>
</g>
<g id="freepik--speech-bubble--inject-7">
	<path class="st5" d="M198.4,91.7c0,2.9,2.4,5.3,5.3,5.3c2.9,0,5.3-2.4,5.3-5.3c0-2.9-2.4-5.3-5.3-5.3l0,0
		C200.8,86.4,198.4,88.8,198.4,91.7z"/>
	<path class="st2" d="M198.4,91.7c0,2.7,2.2,5,5,5c2.7,0,5-2.2,5-5s-2.2-5-5-5C200.7,86.7,198.4,88.9,198.4,91.7z M198.4,91.7
		c0.2-7.3,10.9-7.4,11.1,0C209.3,99,198.6,99,198.4,91.7z"/>
	<circle class="st5" cx="192" cy="75.9" r="7.6"/>
	<path class="st2" d="M184.4,75.9c0,4,3.2,7.3,7.3,7.3c4,0,7.3-3.2,7.3-7.3c0-1.9-0.7-3.7-2-5C192.6,66.1,184.3,69.4,184.4,75.9z
		 M184.4,75.9c0-4.3,3.5-7.9,7.9-7.9c4.3,0,7.9,3.5,7.9,7.9c0,2.2-0.9,4.2-2.5,5.7c-3.2,3-8.2,2.8-11.2-0.4
		C185.2,79.8,184.4,77.9,184.4,75.9z"/>
	<ellipse class="st5" cx="129.5" cy="46.5" rx="60.4" ry="45"/>
	<path class="st2" d="M70.7,36c-7,21.6,9,41.2,28.3,49.1c19.4,8.1,41.2,8,60.5-0.1c12.5-5.3,24-15,28.2-28.2
		c9-29.9-21.1-51.1-47.7-54.3C113.6-1.3,80.3,8.8,70.7,36z M70.7,36c9.6-27.3,42.9-37.5,69.4-34.2c13.8,1.8,27.5,7.1,37.6,16.8
		c10.3,9.5,15.7,24.8,11.1,38.5c-12.2,34-60.1,42-90,28.3C79.6,77.3,63.6,57.6,70.7,36L70.7,36z"/>
</g>
<g id="freepik--Symbol--inject-7">
	<path class="st4" d="M129.8,48.9v4.4c0,1.8-1.4,3.3-3.2,3.3c-0.1,0-0.1,0-0.2,0c-1.8,0-3.3-1.5-3.3-3.3v-7.1c0-0.1,0.1-0.1,0.1-0.1
		c0-0.1-0.1-0.1-0.1-0.1c0.1-1.8,1.5-3.2,3.3-3.3c4.2,0,7.7-3.4,7.7-7.7c0-4.2-3.4-7.7-7.7-7.7c0,0,0,0,0,0c-2.7,0-5.2,1.4-6.6,3.8
		c-0.9,1.6-3,2.2-4.6,1.3c0,0,0,0-0.1,0c-1.6-0.9-2.1-3-1.2-4.6c0,0,0,0,0,0c4-6.9,12.8-9.2,19.6-5.2c6.9,4,9.2,12.8,5.2,19.6
		C136.9,45.6,133.6,48,129.8,48.9L129.8,48.9z M129.8,63.9v1.2c0,1.8-1.4,3.3-3.2,3.3c-0.1,0-0.1,0-0.2,0c-1.8,0-3.3-1.5-3.3-3.3
		v-1.2c0-1.8,1.5-3.3,3.3-3.3C128.3,60.5,129.8,61.9,129.8,63.9C129.8,63.8,129.8,63.8,129.8,63.9z"/>
</g>
</svg>
